<?xml version="1.0" encoding="utf-8"?>
<!-- Generator: Adobe Illustrator 19.2.1, SVG Export Plug-In . SVG Version: 6.00 Build 0)  -->
<svg version="1.1" id="Layer_1" xmlns="http://www.w3.org/2000/svg" xmlns:xlink="http://www.w3.org/1999/xlink" x="0px" y="0px"
	 viewBox="0 0 1400 980" style="enable-background:new 0 0 1400 980;" xml:space="preserve">
<style type="text/css">
	.st0{fill:#FFB696;}
	.st1{fill:#E6A387;}
	.st2{fill:#D1957B;}
	.st3{fill:#753602;}
	.st4{fill:#BF6A0B;}
	.st5{fill:#FFFFFF;}
	.st6{fill:#D68258;}
	.st7{fill:#FFC4AB;}
	.st8{fill:#414042;}
	.st9{fill:#90D4E3;}
	.st10{fill:#6D6E71;}
	.st11{fill:#231F20;}
	.st12{clip-path:url(#SVGID_2_);fill:url(#SVGID_3_);}
	.st13{clip-path:url(#SVGID_2_);fill:url(#SVGID_4_);}
	.st14{clip-path:url(#SVGID_2_);fill:url(#SVGID_5_);}
	.st15{clip-path:url(#SVGID_2_);}
	.st16{fill:#43ACC7;}
	.st17{fill:#2A8DA8;}
	.st18{fill:#752E1A;}
	.st19{fill:#49B8D6;}
	.st20{fill:#A6ECFF;}
	.st21{clip-path:url(#SVGID_7_);fill:url(#SVGID_8_);}
	.st22{clip-path:url(#SVGID_7_);fill:url(#SVGID_9_);}
	.st23{clip-path:url(#SVGID_7_);fill:url(#SVGID_10_);}
	.st24{clip-path:url(#SVGID_7_);}
</style>
<g>
	<rect class="st16" width="1400" height="980"/>
	<g>
		<path class="st19" d="M576.1,208.1H342c-22.3,0-40.3,18.1-40.3,40.3v0c0,22.3,18.1,40.3,40.3,40.3h31.4
			c20.2,0,36.6,16.4,36.6,36.6v0c0,20.2-16.4,36.6-36.6,36.6H207.3c-24.5,0-44.3,19.8-44.3,44.3v0c0,24.5,19.8,44.3,44.3,44.3h29.5
			c18.3,0,33.2,14.9,33.2,33.2v0c0,18.3,14.9,33.2,33.2,33.2h50.3c25.7,0,46.5,20.8,46.5,46.5v0c0,25.7-20.8,46.5-46.5,46.5H248.9
			c-17.1,0-30.9,13.8-30.9,30.9v0c0,17.1,13.8,30.9,30.9,30.9h161.5c22.4,0,40.6,18.2,40.6,40.6v0c0,22.4-18.2,40.6-40.6,40.6H344
			c-21,0-38,17-38,38v0c0,21,17,38,38,38h0c27.6,0,50,22.4,50,50v101h162.8L649,503L576.1,208.1z"/>
		<path class="st19" d="M836.1,980L836.1,980c0-74.6,60.4-135,135-135h35.6c27.6,0,50-22.4,50-50v0c0-27.6-22.4-50-50-50H895.8
			c-14.2,0-25.8-11.5-25.8-25.8v0c0-14.2,11.5-25.8,25.8-25.8h81.9c19.6,0,35.5-15.9,35.5-35.5v0c0-19.6,15.9-35.5,35.5-35.5h230.6
			c26.4,0,47.7-21.4,47.7-47.7v0c0-26.4-21.4-47.7-47.7-47.7H1211c-31.8,0-57.5-25.7-57.5-57.5v0c0-31.8,25.7-57.5,57.5-57.5h51.6
			c17.4,0,31.5-14.1,31.5-31.5v0c0-17.4-14.1-31.5-31.5-31.5h-248.3c-14.1,0-25.6,11.5-25.6,25.6v0c0,14.1,11.5,25.6,25.6,25.6h22.9
			c20.7,0,37.4,16.8,37.4,37.4v0c0,20.7-16.8,37.4-37.4,37.4H1009c-29.3,0-53-23.7-53-53v-92.9c0-33.2,26.9-60.2,60.2-60.2h113.5
			c23.7,0,42.9-19.2,42.9-42.9v0c0-23.7-19.2-42.9-42.9-42.9h-368v510.4L602,859l-8,121H836.1z"/>
		<path class="st19" d="M1219.1,101.8h-186.8c-13.8,0-24.9,11.2-24.9,24.9v0c0,13.8,11.2,24.9,24.9,24.9h186.8
			c13.8,0,24.9-11.2,24.9-24.9v0C1244,113,1232.8,101.8,1219.1,101.8z"/>
		<path class="st19" d="M464.7,126.7H277.9c-13.8,0-24.9,11.2-24.9,24.9v0c0,13.8,11.2,24.9,24.9,24.9h186.8
			c13.8,0,24.9-11.2,24.9-24.9v0C489.6,137.9,478.5,126.7,464.7,126.7z"/>
		<circle class="st19" cx="960.5" cy="126.7" r="24.9"/>
	</g>
	<g>
		<path class="st20" d="M404.4,400.8h134.1c16.2,0,29.3-13.1,29.3-29.3v0c0-16.2-13.1-29.3-29.3-29.3H404.4
			c-16.2,0-29.3,13.1-29.3,29.3v0C375,387.6,388.2,400.8,404.4,400.8z"/>
		<circle class="st20" cx="331.3" cy="371.5" r="29.3"/>
	</g>
	<g>
		<path class="st20" d="M744.3,869.3H631c-13.7,0-24.8,11.1-24.8,24.8v0c0,13.7,11.1,24.8,24.8,24.8h113.3
			c13.7,0,24.8-11.1,24.8-24.8v0C769.1,880.4,758,869.3,744.3,869.3z"/>
		<circle class="st20" cx="803.3" cy="894.1" r="24.8"/>
	</g>
	<g>
		<path class="st0" d="M856.8,446.6l33.5-20.3c12.9-7.4,18-23.5,11.6-36.9v0c-6.4-13.4-22.1-19.7-35.9-14.3l-36.8,13.4
			c-16.2,6.3-23.6,25-16.2,40.7l2.1,4.3C822.5,449.2,841.7,455.3,856.8,446.6z"/>
		<path class="st0" d="M857.9,358.9l44-36.1c16.9-13.4,23.4-33.2,14.7-45.3v0c-8.6-12.1-29.4-12.5-47.6-0.8l-48.4,29.9
			c-21.3,13.6-30.9,37.2-20.8,51.4l2.8,3.9C812.6,375.9,838.1,374.6,857.9,358.9z"/>
		<path class="st0" d="M506,291.1l-53.6,208.7c-3.1,11.9-2.9,24.5,0.5,36.3L506.7,724l-91,256h245.5l48-190L820,684.2L801.2,468
			L551,353.2C551,353.2,558.5,291.1,506,291.1z"/>
		<polygon class="st2" points="684.4,717.7 806.2,697.4 810.3,693.4 556.8,693.4 		"/>
		<path class="st2" d="M541,411.7c0,0-6,60-24.7,102.7c8.7,17.3,24.7,62.7,24.7,62.7V411.7z"/>
		<g>
			<path class="st8" d="M830.3,90.5H562.6c-14.8,0-26.8,12-26.8,26.8v549.5c0,14.8,12,26.8,26.8,26.8h267.7
				c14.8,0,26.8-12,26.8-26.8V117.2C857.1,102.5,845.1,90.5,830.3,90.5z"/>
			<path class="st9" d="M562.6,603c-3.2,0-5.8-2.6-5.8-5.8V136.4c0-3.2,2.6-5.8,5.8-5.8h267.7c3.2,0,5.8,2.6,5.8,5.8v460.9
				c0,3.2-2.6,5.8-5.8,5.8H562.6z"/>
			<g>
				<circle class="st10" cx="696.5" cy="651" r="29.3"/>
				<circle class="st11" cx="696.5" cy="647.1" r="29.3"/>
				<circle class="st8" cx="696.5" cy="647.1" r="24.7"/>
			</g>
			<path class="st10" d="M724.4,106h-55.8c-3.1,0-5.7,2.9-5.7,6.5v0c0,3.6,2.5,6.5,5.7,6.5h55.8c3.1,0,5.7-2.9,5.7-6.5v0
				C730,108.9,727.5,106,724.4,106z"/>
			<path class="st11" d="M724.4,105.4h-55.8c-3.1,0-5.7,2.5-5.7,5.7v0c0,3.1,2.5,5.7,5.7,5.7h55.8c3.1,0,5.7-2.5,5.7-5.7v0
				C730,107.9,727.5,105.4,724.4,105.4z"/>
			<g>
				<defs>
					<path id="SVGID_6_" d="M562.6,603c-3.2,0-5.8-2.6-5.8-5.8V136.4c0-3.2,2.6-5.8,5.8-5.8h267.7c3.2,0,5.8,2.6,5.8,5.8v460.9
						c0,3.2-2.6,5.8-5.8,5.8H562.6z"/>
				</defs>
				<clipPath id="SVGID_2_">
					<use xlink:href="#SVGID_6_"  style="overflow:visible;"/>
				</clipPath>
				
					<linearGradient id="SVGID_3_" gradientUnits="userSpaceOnUse" x1="432.6119" y1="278.529" x2="432.6119" y2="536.1259" gradientTransform="matrix(-0.9639 -0.1738 -7.492449e-003 1.0361 1125.8862 52.5608)">
					<stop  offset="0" style="stop-color:#FFFFFF"/>
					<stop  offset="1" style="stop-color:#90D4E3"/>
				</linearGradient>
				<path class="st12" d="M554.6,317.3c9-4.1,20.2-2.1,30,3.5c9.8,5.6,18.2,14.5,25.6,24.1c6.8,8.9,13,18.7,21.4,25.5
					c6.3,5,13.5,8,20.5,10.4c11.3,3.9,23.1,6.9,34.1,5.4c12-1.7,22.8-8.6,35.3-7.3c9.7,1,19.4,7.1,29.1,7.2
					c16.1,0.2,26.8-15.8,32.5-32.3c2.8-8.1,5-16.8,9.8-23.4c3.4-4.7,8-8.2,12.7-11.1c24.1-14.7,54.7-17.1,83.7-6.5l-2.3,344.8
					L521.6,589C521.2,536.2,534.9,361.3,554.6,317.3z"/>
				<linearGradient id="SVGID_4_" gradientUnits="userSpaceOnUse" x1="712.107" y1="459.0776" x2="712.107" y2="586.5291">
					<stop  offset="0" style="stop-color:#FFFFFF"/>
					<stop  offset="1" style="stop-color:#90D4E3"/>
				</linearGradient>
				<path class="st13" d="M880,516.8c-9.9-4.3-22.4-4.4-33.2-1.7c-10.8,2.7-20.3,8.1-28.5,14.1c-7.6,5.6-14.5,12-23.9,15.7
					c-7,2.8-15,4-22.8,4.8c-12.6,1.3-25.6,1.8-37.7-0.9c-13.3-2.9-25.2-9.6-39-10.4c-10.8-0.6-21.6,2.4-32.2,1.2
					c-17.8-2.1-29.5-15.5-35.7-28.5c-3.1-6.4-5.4-13.1-10.6-18.7c-3.7-4-8.8-7.2-14-10c-26.6-14.3-60.4-20.4-92.5-16.7v163.1
					l404.7,1.3C915.3,591.5,901.4,552,880,516.8z"/>
				
					<linearGradient id="SVGID_5_" gradientUnits="userSpaceOnUse" x1="424.6917" y1="82.5209" x2="424.6917" y2="209.9724" gradientTransform="matrix(-1 0 0 -1 1136.7988 332)">
					<stop  offset="0" style="stop-color:#FFFFFF"/>
					<stop  offset="1" style="stop-color:#90D4E3"/>
				</linearGradient>
				<path class="st14" d="M544.3,191.7c9.9,4.3,22.4,4.4,33.2,1.7c10.8-2.7,20.3-8.1,28.5-14.1c7.6-5.6,14.5-12,23.9-15.7
					c7-2.8,15-4,22.8-4.8c12.6-1.3,25.6-1.8,37.7,0.9c13.3,2.9,25.2,9.6,39,10.4c10.8,0.6,21.6-2.4,32.2-1.2
					c17.8,2.1,29.5,15.5,35.7,28.5c3.1,6.4,5.4,13.1,10.6,18.7c3.7,4,8.8,7.2,14,10c26.6,14.3,60.4,20.4,92.5,16.7V79.5l-404.7-1.3
					C508.9,117,522.8,156.5,544.3,191.7z"/>
				<g class="st15">
					<rect x="640.7" y="399.5" class="st16" width="128.8" height="203.5"/>
					<polygon class="st17" points="739.6,399.5 718.7,399.5 719.6,419.5 					"/>
					<polygon class="st17" points="669.2,399.5 690.2,399.5 689.2,419.5 					"/>
					<path class="st0" d="M683.8,378.9v26.7c0,11.4,9.2,20.6,20.6,20.6S725,417,725,405.6v-26.7H683.8z"/>
					<path class="st2" d="M725,402.9v-24.1h-41.2v21.6C692.1,404.9,706.5,409.5,725,402.9z"/>
					<path class="st7" d="M585.8,368.3c0,0-44,40.5-60.1,93.9c-5.8,19.1,13.1,36.4,31.7,29.2l83.4-32.2v-59.6l-54.9,28.2l20.7-39.6
						L585.8,368.3z"/>
					<g>
						<g>
							
								<ellipse transform="matrix(0.1524 -0.9883 0.9883 0.1524 340.3881 1014.4332)" class="st0" cx="761.6" cy="308.8" rx="23.3" ry="15"/>
							
								<ellipse transform="matrix(0.9883 -0.1524 0.1524 0.9883 -39.533 101.7944)" class="st0" cx="644.2" cy="308.8" rx="15" ry="23.3"/>
							<path class="st1" d="M654.5,293.9c-3.6-5.7-8.7-8.9-13.8-8.2c-1.6,0.2-3.1,0.9-4.4,1.8l5.2,43.2c2,1,4.2,1.4,6.3,1
								c1.6-0.2,3.1-0.9,4.4-1.8L654.5,293.9z"/>
							<path class="st1" d="M751.4,293.9c3.6-5.7,8.7-8.9,13.8-8.2c1.6,0.2,3.1,0.9,4.4,1.8l-5.2,43.2c-2,1-4.2,1.4-6.3,1
								c-1.6-0.2-3.1-0.9-4.4-1.8L751.4,293.9z"/>
							<path class="st0" d="M644.2,241.5v96.9c0,32.4,26.3,58.7,58.7,58.7h0c32.4,0,58.7-26.3,58.7-58.7v-96.9H644.2z"/>
							<path class="st2" d="M644.2,310.4c0,0,11.8-11.7,11.2-35.8l-11.2-19.3V310.4z"/>
							<path class="st2" d="M761.6,310.4c0,0-11.8-11.7-11.2-35.8l11.2-19.3V310.4z"/>
							<path class="st18" d="M655.4,274.6c0,0,30.4-15.7,95,0l25.7-28l-14.5,4.5l14.5-13.5c-28.6-18.2-86.5-31-131.9-5.4v23.2
								L655.4,274.6z"/>
							<path class="st4" d="M729.5,258.7c0,0,13.8-12.4,23.1-17.1c-21.7-0.6-43.3,10.6-43.3,10.6s12.2-9.6,25.9-15.7
								c-48.4,2.4-79.7,37.9-79.7,37.9s30.4-15.7,95,0l25.7-28L729.5,258.7z"/>
							<g>
								<path class="st18" d="M713.2,301.4c-0.5,0-1-0.2-1.4-0.6c-0.8-0.8-0.9-2.1-0.1-3c0.2-0.2,17.2-18,38.8-1.5
									c0.9,0.7,1.1,2,0.4,3c-0.7,0.9-2,1.1-3,0.4c-18.5-14.2-32.5,0.4-33.1,1C714.4,301.1,713.8,301.4,713.2,301.4z"/>
							</g>
							<g>
								<path class="st18" d="M693.2,296.8c0.5,0.1,1,0,1.5-0.2c1-0.6,1.3-1.9,0.7-2.9c-0.1-0.2-13-21.3-37.6-9.8
									c-1.1,0.5-1.5,1.7-1,2.8c0.5,1.1,1.7,1.5,2.8,1c21.1-9.9,31.7,7.3,32.1,8.1C692.1,296.4,692.6,296.7,693.2,296.8z"/>
							</g>
							<path class="st18" d="M719.2,314.6c0,0,9.9-10.3,25.3-2.1c-6.2-6.2-15.9-7.5-23.6-2.1c0-2.6-0.9-5.4-0.9-5.4L719.2,314.6z"/>
							<g>
								<ellipse class="st18" cx="680.4" cy="305.8" rx="6.7" ry="10.5"/>
								<ellipse class="st5" cx="677.8" cy="302.2" rx="2.7" ry="4.1"/>
							</g>
							<path class="st6" d="M713.5,339l-3.8-14.5c-0.8-3.1-3.6-5.2-6.8-5.2c-3.2,0-5.9,2.1-6.8,5.2l-3.8,14.5
								c-1.8,6.9,3.4,13.7,10.5,13.7C710.1,352.7,715.3,345.9,713.5,339z"/>
							<path class="st18" d="M678.7,355.7c0,0,9.8,17.1,36.1,10.3C699.4,375.3,682.6,372.1,678.7,355.7z"/>
							<path class="st2" d="M682.5,372.9c0,0,7.6,8.5,21.9,5.4C693.8,382.3,686,381.6,682.5,372.9z"/>
						</g>
						<path class="st2" d="M661.6,347.3c-2.7-8.8,1.5-27.6,1.5-27.6l-18.5,24.6c1.1,11.5,5.6,22.1,12.5,30.7
							c6.7-13.9,26.7-30.3,26.7-30.3S671.7,344.2,661.6,347.3z"/>
						<g>
							<path class="st7" d="M683.7,344.7c2.9-1.5,4-5.2,2.2-8.1c-1.6-2.5-4.9-3.2-7.5-1.9l-29,14.8l0,0l13.6-29.5
								c1.2-2.7,0.4-6-2.2-7.5c-2.9-1.7-6.6-0.5-8,2.5l-12.1,26.2l-7-6.7c-4.5-4.3-11.6-4.1-15.8,0.3l-32.1,33.5l17.9,17.2
								c6.5,6.2,16.1,7.9,24.3,4.2l16.3-7.4c5.5-2.5,6.7-9.7,2.4-13.8l-3.2-3.1L683.7,344.7z"/>
							<g>
								<path class="st1" d="M626.2,349.8c-6.2,6.5-4.1,12.9-1.8,16.7c0.9,1.5,0.2,3.4-1.5,3.8c-6.3,1.8-9.6,8.5-9.6,8.5
									c9.3-9.7,19.6-6.3,19.6-6.3l-4.9-4.7c-4.8-4.6-5-12.3-0.4-17.1l0.3-0.3l15.6,14.9l1.8-0.9l-17.3-16.6L626.2,349.8z"/>
								<path class="st1" d="M617.9,334.8l-4.2,4.4l-5.2,14.5l17.1,16.4l0.8-3.2l-14.7-14.1l7.2-19
									C618.5,334.2,618.2,334.5,617.9,334.8z"/>
								<polygon class="st1" points="640.7,341.2 634.6,355.6 632.6,353.7 638.3,338.9 								"/>
								<path class="st1" d="M617.7,360.4l2,1.9l11.3-29.8c-0.8-0.4-1.6-0.7-2.5-0.9L617.7,360.4z"/>
							</g>
						</g>
					</g>
					<polygon class="st1" points="585.8,427.7 564.2,470.1 601.7,419.5 					"/>
					<g>
						<g>
							<path class="st5" d="M682.7,447.3c0.9,0.3,1.7,0.8,2.6,1.5c0.2,0.1,0.3,0.3,0.4,0.4c0.1,0.1,0.1,0.3,0.1,0.5
								c0,0.3-0.1,0.6-0.3,0.8c-0.2,0.2-0.5,0.3-0.8,0.3c-0.3,0-0.6-0.1-0.8-0.3c-0.6-0.5-1.2-0.9-1.8-1.2c-0.6-0.2-1.4-0.4-2.3-0.4
								c-1.2,0-2.3,0.3-3.3,0.9c-1,0.6-1.8,1.5-2.4,2.6c-0.6,1.1-0.9,2.3-0.9,3.5c0,1.3,0.3,2.5,0.9,3.5c0.6,1.1,1.4,1.9,2.4,2.6
								c1,0.6,2.1,0.9,3.3,0.9c1.5,0,2.9-0.5,4.2-1.5c0.3-0.2,0.5-0.3,0.8-0.3c0.3,0,0.5,0.1,0.7,0.3c0.2,0.2,0.3,0.5,0.3,0.8
								c0,0.3-0.1,0.6-0.4,0.8c-1.7,1.3-3.5,2-5.6,2c-1.6,0-3.1-0.4-4.5-1.2c-1.4-0.8-2.4-1.9-3.2-3.3c-0.8-1.4-1.2-3-1.2-4.7
								c0-1.7,0.4-3.2,1.2-4.6c0.8-1.4,1.8-2.5,3.2-3.3c1.4-0.8,2.9-1.2,4.5-1.2C680.8,446.8,681.8,447,682.7,447.3z"/>
							<path class="st5" d="M679.7,466.6c-1.9,0-3.7-0.5-5.2-1.4c-1.6-0.9-2.8-2.2-3.7-3.9c-0.9-1.6-1.4-3.4-1.4-5.4
								c0-1.9,0.5-3.7,1.4-5.3c0.9-1.6,2.1-2.9,3.7-3.9c1.6-1,3.3-1.4,5.2-1.4c1.3,0,2.5,0.2,3.5,0.5h0c1,0.4,2,0.9,3,1.7
								c0.3,0.3,0.6,0.6,0.8,1c0.1,0.3,0.2,0.7,0.2,1.1c0,0.7-0.3,1.4-0.8,1.8c-1,0.9-2.4,0.9-3.4,0c-0.5-0.5-1-0.8-1.5-0.9
								c-0.3-0.1-0.8-0.3-1.8-0.3c-0.9,0-1.8,0.2-2.5,0.7c-0.8,0.5-1.4,1.2-1.9,2c-0.5,0.9-0.7,1.8-0.7,2.8c0,1.1,0.2,2,0.7,2.8
								c0.5,0.9,1.1,1.5,1.9,2c0.8,0.5,1.6,0.7,2.5,0.7c1.2,0,2.3-0.4,3.4-1.2c1.2-0.9,2.6-0.7,3.4,0.2c0.4,0.5,0.7,1.1,0.7,1.8
								c0,0.7-0.3,1.3-0.8,1.9l-0.1,0.1C684.3,465.8,682.1,466.6,679.7,466.6z"/>
						</g>
						<g>
							<path class="st5" d="M702.5,448c1.4,0.8,2.5,1.9,3.2,3.3c0.8,1.4,1.2,3,1.2,4.8c0,1.8-0.4,3.4-1.2,4.8
								c-0.8,1.4-1.8,2.5-3.2,3.3c-1.4,0.8-3,1.2-4.7,1.2c-1.8,0-3.4-0.4-4.7-1.2c-1.4-0.8-2.5-1.9-3.2-3.3c-0.8-1.4-1.1-3-1.1-4.8
								c0-1.8,0.4-3.4,1.1-4.8c0.8-1.4,1.8-2.5,3.2-3.3c1.4-0.8,3-1.2,4.7-1.2C699.5,446.8,701.1,447.2,702.5,448z M694.2,449.9
								c-1,0.6-1.8,1.5-2.4,2.5c-0.6,1.1-0.9,2.3-0.9,3.6c0,1.3,0.3,2.5,0.9,3.6c0.6,1.1,1.4,1.9,2.4,2.5c1,0.6,2.2,0.9,3.5,0.9
								c1.3,0,2.5-0.3,3.5-0.9c1-0.6,1.9-1.5,2.4-2.5c0.6-1.1,0.9-2.3,0.9-3.6c0-1.3-0.3-2.5-0.9-3.6c-0.6-1.1-1.4-1.9-2.4-2.5
								c-1-0.6-2.2-0.9-3.5-0.9C696.4,449,695.3,449.3,694.2,449.9z"/>
							<path class="st5" d="M697.8,466.6c-2,0-3.8-0.5-5.4-1.4c-1.6-0.9-2.9-2.2-3.8-3.8c-0.9-1.6-1.3-3.4-1.3-5.5
								c0-2,0.4-3.8,1.3-5.4c0.9-1.6,2.2-2.9,3.8-3.8c1.6-0.9,3.4-1.4,5.4-1.4c2,0,3.8,0.5,5.4,1.4l0,0c1.6,0.9,2.9,2.2,3.8,3.8
								c0.9,1.6,1.3,3.4,1.3,5.4c0,2-0.4,3.8-1.3,5.5c-0.9,1.6-2.2,2.9-3.8,3.8C701.6,466.2,699.8,466.6,697.8,466.6z M695,451.1
								c-0.8,0.5-1.4,1.1-1.9,2c-0.5,0.9-0.7,1.8-0.7,2.9c0,1.1,0.2,2,0.7,2.9c0.5,0.8,1.1,1.5,1.9,2c0.8,0.5,1.7,0.7,2.8,0.7
								c1,0,2-0.2,2.8-0.7c0.8-0.5,1.4-1.1,1.9-2c0.5-0.9,0.7-1.8,0.7-2.9s-0.2-2-0.7-2.9c-0.5-0.8-1.1-1.5-1.9-2
								c-0.8-0.5-1.7-0.7-2.8-0.7C696.7,450.4,695.8,450.6,695,451.1L695,451.1z"/>
						</g>
						<g>
							<path class="st5" d="M723.2,448c1.4,0.8,2.5,1.9,3.2,3.3c0.8,1.4,1.2,3,1.2,4.8c0,1.8-0.4,3.4-1.2,4.8
								c-0.8,1.4-1.8,2.5-3.2,3.3c-1.4,0.8-3,1.2-4.7,1.2c-1.8,0-3.4-0.4-4.7-1.2c-1.4-0.8-2.5-1.9-3.2-3.3c-0.8-1.4-1.1-3-1.1-4.8
								c0-1.8,0.4-3.4,1.1-4.8c0.8-1.4,1.8-2.5,3.2-3.3c1.4-0.8,3-1.2,4.7-1.2C720.2,446.8,721.8,447.2,723.2,448z M714.9,449.9
								c-1,0.6-1.8,1.5-2.4,2.5c-0.6,1.1-0.9,2.3-0.9,3.6c0,1.3,0.3,2.5,0.9,3.6c0.6,1.1,1.4,1.9,2.4,2.5c1,0.6,2.2,0.9,3.5,0.9
								c1.3,0,2.5-0.3,3.5-0.9c1-0.6,1.9-1.5,2.4-2.5c0.6-1.1,0.9-2.3,0.9-3.6c0-1.3-0.3-2.5-0.9-3.6c-0.6-1.1-1.4-1.9-2.4-2.5
								c-1-0.6-2.2-0.9-3.5-0.9C717.1,449,716,449.3,714.9,449.9z"/>
							<path class="st5" d="M718.5,466.6c-2,0-3.8-0.5-5.4-1.4c-1.6-0.9-2.9-2.2-3.8-3.8c-0.9-1.6-1.3-3.4-1.3-5.5
								c0-2,0.4-3.8,1.3-5.4c0.9-1.6,2.2-2.9,3.8-3.8c1.6-0.9,3.4-1.4,5.4-1.4c2,0,3.8,0.5,5.4,1.4l0,0c1.6,0.9,2.9,2.2,3.8,3.8
								c0.9,1.6,1.3,3.4,1.3,5.4c0,2-0.4,3.8-1.3,5.5c-0.9,1.6-2.2,2.9-3.8,3.8C722.3,466.2,720.5,466.6,718.5,466.6z M715.7,451.1
								c-0.8,0.5-1.4,1.1-1.9,2c-0.5,0.9-0.7,1.8-0.7,2.9c0,1.1,0.2,2,0.7,2.9c0.5,0.8,1.1,1.5,1.9,2c0.8,0.5,1.7,0.7,2.8,0.7
								c1,0,2-0.2,2.8-0.7c0.8-0.5,1.4-1.1,1.9-2c0.5-0.9,0.7-1.8,0.7-2.9s-0.2-2-0.7-2.9c-0.5-0.8-1.1-1.5-1.9-2
								c-0.8-0.5-1.7-0.7-2.8-0.7C717.4,450.4,716.5,450.6,715.7,451.1L715.7,451.1z"/>
						</g>
						<g>
							<path class="st5" d="M742.9,462.9c0.2,0.2,0.3,0.5,0.3,0.8c0,0.3-0.1,0.6-0.3,0.9s-0.5,0.3-0.9,0.3h-9.5
								c-0.3,0-0.6-0.1-0.8-0.3c-0.2-0.2-0.3-0.5-0.3-0.9v-15.6c0-0.3,0.1-0.6,0.3-0.9c0.2-0.2,0.5-0.3,0.8-0.3
								c0.3,0,0.6,0.1,0.9,0.3c0.2,0.2,0.3,0.5,0.3,0.9v14.4h8.3C742.3,462.6,742.6,462.7,742.9,462.9z"/>
							<path class="st5" d="M742,466.4h-9.5c-0.7,0-1.4-0.3-1.9-0.8c-0.5-0.5-0.7-1.1-0.7-1.8v-15.6c0-0.7,0.3-1.4,0.8-1.9
								c1-1,2.7-1,3.7,0c0.5,0.5,0.8,1.1,0.8,1.9v12.9h6.9c0.7,0,1.4,0.3,1.9,0.8c0.5,0.5,0.8,1.1,0.8,1.9c0,0.7-0.3,1.4-0.8,1.9
								C743.4,466.1,742.7,466.4,742,466.4z"/>
						</g>
						<g>
							<path class="st5" d="M690.7,492.2c-0.2,0.2-0.5,0.3-0.9,0.3c-0.3,0-0.6-0.1-0.8-0.3s-0.4-0.5-0.4-0.9v-15.6
								c0-0.3,0.1-0.6,0.4-0.8s0.5-0.3,0.8-0.3c0.3,0,0.6,0.1,0.9,0.3s0.3,0.5,0.3,0.8v6.9l7.6-7.6c0.2-0.2,0.3-0.3,0.5-0.4
								c0.1-0.1,0.3-0.1,0.5-0.1c0.3,0,0.6,0.1,0.7,0.3c0.2,0.2,0.3,0.4,0.3,0.7c0,0.4-0.1,0.7-0.4,1l-5.9,5.9l6,8.1
								c0.2,0.2,0.2,0.5,0.2,0.7c0,0.3-0.1,0.6-0.3,0.8c-0.2,0.2-0.5,0.4-0.8,0.4c-0.4,0-0.8-0.2-1-0.5l-5.8-7.9l-1.7,1.7v5.5
								C691.1,491.7,691,492,690.7,492.2z"/>
							<path class="st5" d="M699.5,494c-0.9,0-1.7-0.4-2.2-1.1l-4.8-6.5l-0.1,0.1v4.9c0,0.7-0.3,1.4-0.8,1.9c-1,1-2.7,1-3.7,0
								c-0.5-0.5-0.8-1.2-0.8-1.9v-15.6c0-0.7,0.3-1.4,0.8-1.9c1-1,2.7-1,3.7,0c0.5,0.5,0.8,1.1,0.8,1.9v3.4l5.2-5.2
								c0.3-0.3,0.6-0.5,0.9-0.7c0.3-0.2,0.7-0.2,1.1-0.2c0.9,0,1.5,0.4,1.8,0.7c0.4,0.5,0.6,1,0.6,1.7c0,0.8-0.3,1.5-0.9,2l-5,5
								l5.2,7.1c0.3,0.5,0.5,1,0.5,1.6c0,0.6-0.2,1.2-0.6,1.7C700.9,493.7,700.3,494,699.5,494z M699.7,491.2L699.7,491.2
								C699.7,491.2,699.7,491.2,699.7,491.2z"/>
						</g>
						<g>
							<path class="st5" d="M704.4,474.9c0.2-0.2,0.5-0.3,0.8-0.3c0.4,0,0.6,0.1,0.9,0.3c0.2,0.2,0.3,0.5,0.3,0.9v15.6
								c0,0.3-0.1,0.6-0.3,0.9c-0.2,0.2-0.5,0.3-0.9,0.3c-0.3,0-0.6-0.1-0.8-0.3c-0.2-0.2-0.3-0.5-0.3-0.9v-15.6
								C704,475.4,704.1,475.1,704.4,474.9z"/>
							<path class="st5" d="M705.2,494c-0.7,0-1.4-0.3-1.9-0.8c-0.5-0.5-0.8-1.1-0.8-1.9v-15.6c0-0.7,0.3-1.4,0.8-1.9
								c1-1,2.7-1,3.7,0c0.5,0.5,0.8,1.1,0.8,1.9v15.6c0,0.7-0.3,1.3-0.7,1.8C706.6,493.7,706,494,705.2,494z"/>
						</g>
						<g>
							<path class="st5" d="M721,475.7c1.3,0.8,2.4,1.8,3.1,3.2c0.8,1.4,1.1,2.9,1.1,4.6c0,1.7-0.4,3.3-1.1,4.6
								c-0.8,1.4-1.8,2.4-3.1,3.2c-1.3,0.8-2.9,1.1-4.6,1.1h-4.2c-0.3,0-0.6-0.1-0.8-0.3c-0.2-0.2-0.3-0.5-0.3-0.9v-15.6
								c0-0.4,0.1-0.6,0.3-0.9c0.2-0.2,0.5-0.3,0.8-0.3h4.2C718.1,474.6,719.6,475,721,475.7z M719.8,489.5c1-0.6,1.8-1.4,2.3-2.4
								c0.6-1,0.8-2.2,0.8-3.5c0-1.3-0.3-2.5-0.8-3.5c-0.6-1-1.3-1.9-2.3-2.4c-1-0.6-2.1-0.9-3.4-0.9h-3v13.7h3
								C717.6,490.4,718.8,490.1,719.8,489.5z"/>
							<path class="st5" d="M716.4,494h-4.2c-0.7,0-1.4-0.3-1.9-0.8c-0.5-0.5-0.8-1.1-0.8-1.9v-15.6c0-0.7,0.3-1.4,0.8-1.9
								c0.5-0.5,1.1-0.7,1.8-0.7h4.2c2,0,3.8,0.4,5.3,1.3l0,0c1.6,0.9,2.8,2.1,3.7,3.7c0.9,1.6,1.3,3.4,1.3,5.3c0,2-0.4,3.8-1.3,5.3
								c-0.9,1.6-2.1,2.9-3.7,3.7C720.1,493.5,718.3,494,716.4,494z M714.8,489h1.5c1,0,1.9-0.2,2.7-0.7l0,0
								c0.8-0.4,1.4-1.1,1.8-1.9c0.5-0.8,0.7-1.8,0.7-2.9c0-1.1-0.2-2-0.7-2.9c-0.4-0.8-1-1.4-1.8-1.9c-0.8-0.5-1.7-0.7-2.7-0.7
								h-1.5V489z"/>
						</g>
					</g>
					<polygon class="st7" points="769.6,399.5 868.7,352.7 868.7,419.5 769.6,449 					"/>
					<path class="st17" d="M769.6,585.5c-61.9,28.1-111.5,8.4-128.8-0.6V603h128.8V585.5z"/>
				</g>
			</g>
		</g>
		<path class="st0" d="M868.5,554.5l-39.8,23.2c-11.5,6.7-15.9,21.2-10.1,33.2v0c5.9,12,20,17.5,32.4,12.5l42.8-17.1
			c14.5-5.8,21-22.6,14.2-36.7l-1.9-3.8C899.2,551.8,881.9,546.6,868.5,554.5z"/>
		<path class="st0" d="M862,460.7l-29.8,18.8c-11.5,6.8-15.7,21.4-9.8,33.3l0,0c6,11.9,20.1,17.3,32.5,12.2l32.8-12.6
			c14.4-5.9,20.8-22.8,13.8-36.8l-1.9-3.8C892.8,457.8,875.4,452.7,862,460.7z"/>
	</g>
	<g>
		<g>
			<path class="st20" d="M866.5,74.9h-71.1c-8.6,0-15.6,7-15.6,15.6v0c0,8.6,7,15.6,15.6,15.6h71.1c8.6,0,15.6-7,15.6-15.6v0
				C882,81.9,875,74.9,866.5,74.9z"/>
			<circle class="st20" cx="910.5" cy="90.5" r="15.6"/>
		</g>
		<g>
			<path class="st20" d="M495.2,620h-71.1c-8.6,0-15.6,7-15.6,15.6v0c0,8.6,7,15.6,15.6,15.6h71.1c8.6,0,15.6-7,15.6-15.6v0
				C510.7,627,503.8,620,495.2,620z"/>
			<circle class="st20" cx="539.3" cy="635.5" r="15.6"/>
		</g>
		<g>
			<path class="st20" d="M707.6,814.1h71.1c8.6,0,15.6-7,15.6-15.6v0c0-8.6-7-15.6-15.6-15.6h-71.1c-8.6,0-15.6,7-15.6,15.6v0
				C692.1,807.1,699.1,814.1,707.6,814.1z"/>
			<circle class="st20" cx="663.6" cy="798.5" r="15.6"/>
		</g>
		<path class="st20" d="M534.5,200.2h-4.6c-3.1,0-5.6-2.5-5.6-5.6v-4.6c0-4.4-3.6-7.9-7.9-7.9h0c-4.4,0-7.9,3.6-7.9,7.9v4.6
			c0,3.1-2.5,5.6-5.6,5.6h-4.6c-4.4,0-7.9,3.6-7.9,7.9v0c0,4.4,3.6,7.9,7.9,7.9h4.6c3.1,0,5.6,2.5,5.6,5.6v4.6
			c0,4.4,3.6,7.9,7.9,7.9h0c4.4,0,7.9-3.6,7.9-7.9v-4.6c0-3.1,2.5-5.6,5.6-5.6h4.6c4.4,0,7.9-3.6,7.9-7.9v0
			C542.5,203.7,538.9,200.2,534.5,200.2z"/>
		<path class="st20" d="M985.2,524.6c-2.4,0-4.6-0.9-6.3-2.6l-6.3-6.3c-3.3-3.3-7.6-5.1-12.2-5.1c-4.6,0-9,1.8-12.2,5.1l-6.3,6.3
			c-1.7,1.7-3.9,2.6-6.3,2.6s-4.6-0.9-6.3-2.6c-1.7-1.7-2.6-3.9-2.6-6.3c0-2.4,0.9-4.6,2.6-6.3l6.3-6.3c3.3-3.3,5.1-7.6,5.1-12.2
			s-1.8-9-5.1-12.2l-6.3-6.3c-3.5-3.5-3.5-9.2,0-12.7c1.7-1.7,3.9-2.6,6.3-2.6s4.6,0.9,6.3,2.6l6.3,6.3c3.3,3.3,7.6,5.1,12.2,5.1
			s9-1.8,12.2-5.1l6.3-6.3c1.7-1.7,3.9-2.6,6.3-2.6c2.4,0,4.6,0.9,6.3,2.6c3.5,3.5,3.5,9.2,0,12.7l-6.3,6.3
			c-3.3,3.3-5.1,7.6-5.1,12.2s1.8,9,5.1,12.2l6.3,6.3c1.7,1.7,2.6,3.9,2.6,6.3c0,2.4-0.9,4.6-2.6,6.3
			C989.9,523.6,987.6,524.6,985.2,524.6z"/>
		<path class="st20" d="M892.5,279.6c-2,0-3.9-0.8-5.3-2.2l-5.3-5.3c-2.7-2.8-6.4-4.3-10.3-4.3c-3.9,0-7.5,1.5-10.3,4.3l-5.3,5.3
			c-1.4,1.4-3.3,2.2-5.3,2.2s-3.9-0.8-5.3-2.2c-1.4-1.4-2.2-3.3-2.2-5.3c0-2,0.8-3.9,2.2-5.3l5.3-5.3c2.7-2.7,4.3-6.4,4.3-10.3
			s-1.5-7.5-4.3-10.3l-5.3-5.3c-2.9-2.9-2.9-7.7,0-10.7c1.4-1.4,3.3-2.2,5.3-2.2s3.9,0.8,5.3,2.2l5.3,5.3c2.7,2.7,6.4,4.3,10.3,4.3
			c3.9,0,7.5-1.5,10.3-4.3l5.3-5.3c1.4-1.4,3.3-2.2,5.3-2.2s3.9,0.8,5.3,2.2c2.9,2.9,2.9,7.7,0,10.7l-5.3,5.3
			c-2.7,2.7-4.3,6.4-4.3,10.3s1.5,7.5,4.3,10.3l5.3,5.3c1.4,1.4,2.2,3.3,2.2,5.3c0,2-0.8,3.9-2.2,5.3
			C896.4,278.8,894.5,279.6,892.5,279.6z"/>
	</g>
</g>
</svg>
